<svg width="24" height="24" viewBox="0 0 24 24" fill="none" xmlns="http://www.w3.org/2000/svg">
<path d="M11.9478 19.1317C10.7034 19.0922 9.44749 18.8691 8.21404 18.5201C6.02929 17.9017 4.03997 16.9038 2.30544 15.4276C1.66959 14.8864 1.04181 14.3308 0.608756 13.6029C-0.290864 12.0909 -0.187598 10.3349 0.880096 8.9101C1.66817 7.85836 2.70185 7.18112 4.00605 6.97186C5.18307 6.78299 6.25601 7.08138 7.21751 7.78053C7.47018 7.96425 7.47371 7.96879 7.51611 7.66484C7.80178 5.62071 9.40923 4.28259 11.328 4.04587C12.7132 3.87497 13.977 4.17397 15.0635 5.07137C15.9063 5.76759 16.356 6.68719 16.5001 7.76317C16.5276 7.96788 16.5331 7.96798 16.7038 7.83756C18.555 6.42332 20.8868 6.71728 22.4959 8.21197C23.2111 8.87628 23.7036 9.67678 23.9049 10.6391C24.173 11.9206 23.8698 13.0735 23.0508 14.079C22.237 15.0783 21.2343 15.8717 20.1562 16.5681C18.3658 17.7247 16.4061 18.4623 14.3186 18.8676C13.5498 19.0169 12.7737 19.1186 11.9478 19.1316V19.1317ZM13.5532 13.4322C13.5755 13.5424 13.5877 13.5989 13.5984 13.6557C13.6829 14.1024 14.0955 14.4304 14.5563 14.4167C15.0237 14.4029 15.4225 14.0413 15.4735 13.5838C15.5015 13.3327 15.4378 13.1068 15.2822 12.9065C15.232 12.842 15.2036 12.7746 15.2467 12.6905C15.2893 12.6074 15.3618 12.6211 15.4324 12.6174C15.5776 12.6096 15.7198 12.6351 15.8589 12.6667C16.6271 12.8412 17.2089 13.2359 17.4477 14.0286C17.4644 14.0843 17.4839 14.1411 17.5133 14.1907C17.6044 14.3446 17.7847 14.4125 17.9327 14.3505C18.1074 14.2773 18.1489 14.1407 18.1121 13.9661C18.0123 13.4923 17.7883 13.0847 17.4272 12.7649C16.416 11.8697 15.0141 11.7092 13.8243 12.3617C13.1717 12.7196 12.7227 13.2499 12.5827 14.0018C12.5406 14.2276 12.6625 14.3654 12.8927 14.3719C13.0995 14.3779 13.1959 14.2962 13.2461 14.062C13.2929 13.8442 13.3771 13.6467 13.5533 13.4321L13.5532 13.4322ZM6.85522 13.4206C6.88238 13.5467 6.8952 13.6304 6.91852 13.7109C7.03612 14.1169 7.31624 14.3413 7.72537 14.4084C8.07534 14.4657 8.46903 14.2745 8.65497 13.9532C8.86675 13.5873 8.83273 13.2309 8.58188 12.894C8.54221 12.8407 8.49568 12.7912 8.52414 12.7193C8.54938 12.6556 8.60611 12.64 8.6687 12.6422C9.24035 12.662 9.75719 12.8284 10.1896 13.2153C10.4537 13.4515 10.63 13.7405 10.7223 14.0846C10.7859 14.3217 10.9768 14.4413 11.1697 14.386C11.3687 14.3289 11.4208 14.1977 11.3595 13.9293C11.2702 13.5387 11.0857 13.1988 10.8103 12.9109C9.88942 11.9481 8.36122 11.7177 7.1524 12.3545C6.46982 12.7142 6.01042 13.2489 5.84668 14.0148C5.80166 14.2252 5.91068 14.3755 6.12166 14.4014C6.30952 14.4245 6.43388 14.3368 6.49182 14.1344C6.56309 13.8856 6.64122 13.6412 6.85553 13.4207L6.85522 13.4206ZM12.0036 16.7841C12.6194 16.7756 13.1645 16.5741 13.6004 16.1094C13.7046 15.9982 13.755 15.8832 13.6623 15.7431C13.5714 15.6056 13.4393 15.5722 13.2859 15.6074C13.1811 15.6315 13.1033 15.7008 13.0226 15.7682C12.4071 16.2818 11.5286 16.2661 10.931 15.7348C10.8925 15.7006 10.8502 15.6681 10.8044 15.6453C10.6219 15.5547 10.4281 15.5916 10.3323 15.7362C10.2214 15.9035 10.3063 16.0308 10.4248 16.1488C10.858 16.5802 11.386 16.7776 12.0036 16.7841Z" fill="white"/>
</svg>
