<?xml version="1.0" encoding="UTF-8"?>
<svg version="1.1" xmlns="http://www.w3.org/2000/svg" width="4292" height="613">
<path d="M0 0 C1.14947585 0.00092179 2.2989517 0.00184359 3.48326015 0.00279331 C4.79449636 0.00141582 6.10573256 0.00003832 7.45670319 -0.00138092 C8.92929575 0.00216636 10.4018881 0.00580426 11.87448025 0.00952244 C13.43652214 0.00982854 14.99856417 0.00969567 16.560606 0.00915718 C20.75816589 0.00893066 24.9556975 0.01474252 29.15325069 0.02176762 C33.08657328 0.02744648 37.01988884 0.02772986 40.9532156 0.02844334 C52.46986162 0.03369864 63.98650234 0.04765968 75.50314236 0.06054783 C101.22251736 0.08117283 126.94189236 0.10179783 153.44064236 0.12304783 C153.77064236 57.54304783 154.10064236 114.96304783 154.44064236 174.12304783 C158.98796537 169.57572481 163.24902031 165.27295793 167.40157986 160.44726658 C169.9881758 157.49894361 172.6490095 154.62390176 175.31564236 151.74804783 C179.63581987 147.08650482 183.91433102 142.39197972 188.15548611 137.65820408 C190.77337364 134.75391517 193.41817439 131.87534007 196.06564236 128.99804783 C199.04289055 125.76093754 202.00017257 122.51166863 204.87814236 119.18554783 C208.46001544 115.05393882 212.17902194 111.05374856 215.8952322 107.04345798 C219.68701655 102.94880412 223.4315202 98.81471776 227.15548611 94.65820408 C229.77337364 91.75391517 232.41817439 88.87534007 235.06564236 85.99804783 C238.04289055 82.76093754 241.00017257 79.51166863 243.87814236 76.18554783 C247.46001544 72.05393882 251.17902194 68.05374856 254.8952322 64.04345798 C258.68951275 59.94610854 262.43610682 55.8089401 266.16329861 51.65039158 C268.73874046 48.79222541 271.33753932 45.95598166 273.94064236 43.12304783 C278.81010985 37.82186304 283.63487303 32.48199924 288.44064236 27.12304783 C296.4336957 18.20993079 296.4336957 18.20993079 300.31173611 14.00195408 C300.80045193 13.47134373 301.28916775 12.94073338 301.79269314 12.39404392 C303.18030496 10.88952198 304.5701773 9.38708582 305.96017361 7.88476658 C308.45501369 5.25518022 308.45501369 5.25518022 310.13376904 2.48801994 C312.72043521 -0.16379163 314.07655043 -0.46584873 317.72047448 -0.52235872 C318.41697571 -0.50779451 319.11347693 -0.4932303 319.83108425 -0.47822475 C320.57770848 -0.48249688 321.32433271 -0.486769 322.09358191 -0.49117059 C324.59692219 -0.49941061 327.09858915 -0.47190115 329.60177517 -0.44457912 C331.39544542 -0.44316886 333.18911856 -0.44396021 334.98278713 -0.44679165 C339.85454791 -0.44822807 344.72569497 -0.41880176 349.59731293 -0.38392186 C354.68753428 -0.35269596 359.77776921 -0.34973059 364.86807156 -0.34379482 C374.50830055 -0.32824531 384.14824653 -0.28720179 393.78835082 -0.23704737 C404.76280181 -0.18118842 415.73726621 -0.15367608 426.71182394 -0.1285702 C449.28825374 -0.07628697 471.8644322 0.01167692 494.44064236 0.12304783 C493.04258907 3.02431761 491.65820823 5.17929385 489.42892361 7.51367283 C488.83958035 8.13653172 488.25023708 8.7593906 487.64303493 9.401124 C486.70753811 10.3772263 486.70753811 10.3772263 485.75314236 11.37304783 C484.47099857 12.72767117 483.18973715 14.08313026 481.90939236 15.43945408 C481.30095486 16.0828574 480.69251736 16.72626072 480.06564236 17.38916111 C477.70802861 19.90475198 475.4516822 22.49939703 473.20236111 25.11132908 C470.86593096 27.77931472 468.46647985 30.38819337 466.06564236 32.99804783 C461.15264671 38.33935163 456.28684982 43.72100295 451.44064236 49.12304783 C449.94093108 50.7899743 448.44092915 52.45663932 446.94064236 54.12304783 C445.82689236 55.36054783 445.82689236 55.36054783 444.69064236 56.62304783 C392.94064236 114.12304783 392.94064236 114.12304783 390.68282986 116.63086033 C389.20771618 118.27044661 387.73372584 119.91104438 386.26095486 121.55273533 C382.13966467 126.14335393 377.99190448 130.7075189 373.81564236 135.24804783 C370.25811137 139.11672605 366.75774661 143.02638908 363.31564236 146.99804783 C360.42213227 150.27735926 357.44975877 153.48411495 354.48751736 156.70117283 C351.93509092 159.4779884 349.41080948 162.272855 346.94064236 165.12304783 C343.53386886 169.05394032 340.01061451 172.87501355 336.48751736 176.70117283 C333.93509092 179.4779884 331.41080948 182.272855 328.94064236 185.12304783 C325.53386886 189.05394032 322.01061451 192.87501355 318.48751736 196.70117283 C315.93509092 199.4779884 313.41080948 202.272855 310.94064236 205.12304783 C307.57741598 209.00121796 304.10728565 212.77832594 300.63253689 216.5561533 C296.19840608 221.37889674 291.81545996 226.24645903 287.44064236 231.12304783 C285.94093108 232.7899743 284.44092915 234.45663932 282.94064236 236.12304783 C282.19814236 236.94804783 281.45564236 237.77304783 280.69064236 238.62304783 C278.44064236 241.12304783 276.19064236 243.62304783 273.94064236 246.12304783 C273.20716579 246.94160252 272.47368923 247.7601572 271.71798611 248.60351658 C270.14100908 250.34819957 268.54875011 252.07914515 266.94454861 253.79882908 C266.13888454 254.66894627 265.33322048 255.53906345 264.50314236 256.43554783 C263.77224392 257.21543064 263.04134548 257.99531345 262.28829861 258.79882908 C260.40322143 261.17012067 259.40599004 263.26743819 258.44064236 266.12304783 C259.26306423 267.12722752 260.08548611 268.1314072 260.93282986 269.16601658 C266.18243901 275.59204416 271.410042 282.02349785 276.44064236 288.62304783 C280.7021011 294.21060071 285.10613122 299.66741209 289.55172634 305.10913181 C293.5403094 309.99747454 297.46092384 314.93374406 301.34664822 319.90405369 C304.68209729 324.16745961 308.05314508 328.40090252 311.44064236 332.62304783 C315.28328603 337.4124834 319.09614062 342.22310375 322.87814236 347.06054783 C326.84263336 352.12820155 330.87329305 357.13763114 334.94064236 362.12304783 C341.32207957 369.94657532 347.56263138 377.87376583 353.77462673 385.8320322 C359.09932569 392.64920153 364.47306183 399.41971043 369.94064236 406.12304783 C376.32197678 413.94666148 382.56262931 421.87376318 388.77462673 429.8320322 C394.63894991 437.34007808 400.57952707 444.77755736 406.60201931 452.15942478 C410.57157591 457.03267768 414.47567091 461.95273551 418.34689236 466.90429783 C421.68218964 471.16767783 425.05321669 475.40099178 428.44064236 479.62304783 C432.28328603 484.4124834 436.09614062 489.22310375 439.87814236 494.06054783 C443.84263336 499.12820155 447.87329305 504.13763114 451.94064236 509.12304783 C458.32207957 516.94657532 464.56263138 524.87376583 470.77462673 532.8320322 C476.09932569 539.64920153 481.47306183 546.41971043 486.94064236 553.12304783 C492.39333563 559.80813323 497.75011148 566.56122264 503.05831814 573.36132908 C504.52993501 575.23684786 506.01337094 577.10255046 507.49923611 578.96679783 C508.00180935 579.59956638 508.50438259 580.23233494 509.02218533 580.8842783 C509.983298 582.09382894 510.94701631 583.30131543 511.91378689 584.50634861 C514.11033665 587.27839931 515.92664024 589.93373307 517.44064236 593.12304783 C494.16202013 593.45046198 470.88377883 593.6971477 447.60331917 593.84841824 C436.79301971 593.92053172 425.98415289 594.01879601 415.17477322 594.17920017 C405.75035481 594.31898544 396.32697402 594.40911843 386.90154773 594.44028676 C381.91270434 594.4585011 376.92682853 594.50112111 371.93893909 594.60326862 C367.23722449 594.69876955 362.53967909 594.72752469 357.83708668 594.70655537 C356.11765214 594.71038702 354.39806909 594.73797901 352.67947674 594.79192448 C340.05683109 595.1684908 340.05683109 595.1684908 335.67585683 591.74326658 C332.42802622 588.42049369 329.88752754 584.71773555 327.47106898 580.76380467 C326.11924649 578.61128653 324.55113425 576.68497422 322.90939236 574.74804783 C322.41503689 574.14347752 321.92068142 573.5389072 321.41134548 572.91601658 C320.92601345 572.32433689 320.44068142 571.7326572 319.94064236 571.12304783 C315.43168115 565.60077667 310.99219431 560.03117577 306.60470486 554.41211033 C303.10287989 549.93868074 299.53253071 545.52437581 295.94064236 541.12304783 C291.43304263 535.59965098 286.99221594 530.03120347 282.60470486 524.41211033 C279.10287989 519.93868074 275.53253071 515.52437581 271.94064236 511.12304783 C267.43304263 505.59965098 262.99221594 500.03120347 258.60470486 494.41211033 C255.10287989 489.93868074 251.53253071 485.52437581 247.94064236 481.12304783 C243.43304263 475.59965098 238.99221594 470.03120347 234.60470486 464.41211033 C231.10287989 459.93868074 227.53253071 455.52437581 223.94064236 451.12304783 C219.43304263 445.59965098 214.99221594 440.03120347 210.60470486 434.41211033 C207.10287989 429.93868074 203.53253071 425.52437581 199.94064236 421.12304783 C195.43304263 415.59965098 190.99221594 410.03120347 186.60470486 404.41211033 C183.10287968 399.93868047 179.53252372 395.52438211 175.94064236 391.12304783 C170.81448374 384.84150558 165.771446 378.50068485 160.78048611 372.11132908 C158.68471754 369.43476322 156.56426105 366.7775712 154.44064236 364.12304783 C154.11064236 439.69304783 153.78064236 515.26304783 153.44064236 593.12304783 C101.63064236 593.12304783 49.82064236 593.12304783 -3.55935764 593.12304783 C-3.57948842 524.2054715 -3.57948842 524.2054715 -3.58500767 502.88893223 C-3.585205 502.12868713 -3.58540233 501.36844204 -3.58560565 500.58515921 C-3.59222731 475.00578354 -3.59747943 449.42640777 -3.60170078 423.84703159 C-3.60190787 422.59539174 -3.60190787 422.59539174 -3.60211914 421.31846624 C-3.60511169 403.18638057 -3.60788192 385.05429488 -3.61042297 366.92220915 C-3.61167037 358.03090342 -3.61296691 349.13959769 -3.61428928 340.24829197 C-3.61442004 339.36347585 -3.6145508 338.47865974 -3.61468552 337.56703101 C-3.6189508 308.86094856 -3.62646502 280.15486806 -3.63565486 251.44878679 C-3.64507746 221.96225512 -3.65124076 192.47572454 -3.65327263 162.98919139 C-3.65356081 158.82935196 -3.65388645 154.66951254 -3.65423489 150.50967312 C-3.65430231 149.69091546 -3.65436973 148.8721578 -3.6544392 148.0285893 C-3.65562329 134.82143542 -3.66026772 121.6142849 -3.66618968 108.40713239 C-3.67206254 95.1460985 -3.67432924 81.88506795 -3.67285902 68.6240328 C-3.67209546 60.73467987 -3.67415264 52.8453391 -3.68015519 44.95598835 C-3.68432155 39.08135115 -3.68333266 33.20672249 -3.68025654 27.33208435 C-3.6798306 24.94311836 -3.68112836 22.55415137 -3.68424083 20.16518737 C-3.68820069 16.94063038 -3.68612361 13.71613491 -3.68240547 10.49157906 C-3.68503249 9.54443357 -3.6876595 8.59728808 -3.69036612 7.62144122 C-3.67070178 0.17647861 -3.67070178 0.17647861 0 0 Z " fill="#FFFFFF" transform="translate(1716.5593576431274,7.876952171325684)"/>
<path d="M0 0 C144.54 0 289.08 0 438 0 C432.75282983 11.07735925 427.51410131 22.12816105 422.02593994 33.08364868 C421.61756645 33.89945026 421.20919296 34.71525185 420.78844452 35.55577469 C420.36591652 36.39975185 419.94338852 37.24372902 419.50805664 38.11328125 C418.59669359 39.93736715 417.68549989 41.76153767 416.77445984 43.58578491 C414.32997073 48.47926899 411.88300397 53.37150996 409.43543553 58.26345444 C406.85511662 63.4215327 404.27677503 68.5805993 401.69810486 73.73950195 C397.36991577 82.3976915 393.04005535 91.05504365 388.70922852 99.71191406 C383.72683724 109.6712567 378.74732844 119.63203648 373.76931483 129.59356785 C369.46900941 138.19874019 365.16712202 146.80312033 360.86394972 155.4068594 C358.30535283 160.52250693 355.74727269 165.63841092 353.19062996 170.7550354 C350.78496506 175.56928835 348.37729285 180.38253245 345.96817207 185.19505692 C345.09283116 186.94443465 344.21814357 188.69413949 343.34421921 190.44422531 C338.99625894 199.15023485 334.59332369 207.81949545 330.03916931 216.41967773 C324.78922846 226.33656273 319.75806762 236.35676491 314.75195312 246.3984375 C313.77182227 248.3606247 312.7915055 250.32271904 311.8110199 252.284729 C309.72071048 256.4684784 307.63163917 260.65284267 305.54356384 264.83770752 C302.23218101 271.47414783 298.91763828 278.10900687 295.60266113 284.74365234 C288.5660518 298.82790886 281.53283573 312.9138589 274.5 327 C266.90389143 342.21432623 259.3071609 357.42834032 251.70651007 372.64039803 C248.42085323 379.21665087 245.1371406 385.79386947 241.8549881 392.37187195 C239.80283965 396.4837024 237.7489806 400.59467673 235.6946888 404.70543671 C234.75320404 406.59025579 233.81240136 408.47541578 232.87238884 410.36096954 C228.49931698 419.13199167 224.08887906 427.87275213 219.48449707 436.52490234 C211.43346026 451.90195437 203.76238266 467.47523468 196 483 C270.58 483.33 345.16 483.66 422 484 C422 519.97 422 555.94 422 593 C276.14 593 130.28 593 -20 593 C-9.65693256 571.1646354 -9.65693256 571.1646354 -5.27172852 562.4140625 C-4.51844269 560.90486237 -4.51844269 560.90486237 -3.74993896 559.36517334 C-2.12823865 556.1174565 -0.50369682 552.87117177 1.12109375 549.625 C2.27266357 547.32118436 3.42411479 545.01730944 4.57545471 542.71337891 C6.97356696 537.91569124 9.3730615 533.11869881 11.77368164 528.32226562 C14.52027791 522.8345107 17.26399141 517.34532183 20.0062117 511.8553791 C22.68097533 506.50070698 25.35804376 501.14719079 28.03602791 495.79412842 C29.15874698 493.54934895 30.28089068 491.3042816 31.40240288 489.05889893 C36.49667829 478.86198418 41.60271538 468.67770872 46.94750977 458.609375 C52.89563878 447.39953583 58.53677933 436.03766694 64.19458199 424.6792984 C65.73225592 421.59375423 67.27267459 418.50958095 68.81286621 415.42529297 C72.71099513 407.61806745 76.60569854 399.80913522 80.5 392 C84.70855978 383.56069126 88.91777516 375.12171288 93.13093996 366.68470192 C94.65261549 363.63725006 96.17346162 360.58939088 97.69218445 357.54046631 C108.42396022 335.99996694 108.42396022 335.99996694 113.98632812 325.52734375 C119.99504795 314.21352253 125.68478805 302.7412575 131.39651108 291.27544022 C132.96221416 288.13384255 134.53065845 284.99361404 136.09887695 281.85327148 C140.06833448 273.90338595 144.03436755 265.95179412 148 258 C152.28555032 249.40671398 156.57175441 240.81375736 160.86190701 232.22276783 C162.41152762 229.11942439 163.96031791 226.01567303 165.50698853 222.91085815 C167.23586437 219.44093904 168.96731018 215.97231244 170.69921875 212.50390625 C171.43523819 211.02411789 171.43523819 211.02411789 172.18612671 209.51443481 C176.97963678 199.92672125 182.00331746 190.49369682 187 181 C198.22 158.56 209.44 136.12 221 113 C148.07 112.67 75.14 112.34 0 112 C0 75.04 0 38.08 0 0 Z " fill="#FFFFFF" transform="translate(1180,8)"/>
<path d="M0 0 C0.86501752 32.41975224 1.0916239 64.82053298 1.0625 97.25 C1.06164398 98.2099437 1.06078796 99.16988739 1.05990601 100.15892029 C1.04846543 112.10596534 1.02831686 124.05298345 1 136 C1.74554264 135.99902848 2.49108528 135.99805696 3.25922012 135.99705601 C51.77489358 135.93711299 100.28698522 136.07804416 148.80166781 136.38708669 C155.08141654 136.42708395 161.36117141 136.46597666 167.64093018 136.50436401 C223.42908953 136.84626688 279.2151424 137.28926093 335 138 C331.97914626 141.05118829 329.00952318 143.90261654 325.5859375 146.49609375 C324.33586914 147.44645508 324.33586914 147.44645508 323.06054688 148.41601562 C322.17431641 149.08310547 321.28808594 149.75019531 320.375 150.4375 C319.44494141 151.14197266 318.51488281 151.84644531 317.55664062 152.57226562 C310.80253406 157.67567405 303.99637947 162.70607495 297.16748047 167.70874023 C291.22523532 172.07086318 285.35354009 176.51972445 279.5 181 C272.11358208 186.65353395 264.66805534 192.21470194 257.1640625 197.7109375 C250.32771275 202.73031722 243.58781756 207.8707832 236.85351562 213.02587891 C230.94748867 217.5385826 224.99420594 221.98021248 219 226.375 C212.22204454 231.34586796 205.52697178 236.40159454 198.88085938 241.54785156 C187.40945071 250.40454143 175.85706861 259.14610871 164.16552734 267.70996094 C158.22415777 272.07197911 152.35293281 276.52018926 146.5 281 C139.11358208 286.65353395 131.66805534 292.21470194 124.1640625 297.7109375 C118.22328567 302.07277032 112.3524674 306.52054548 106.5 311 C99.11358208 316.65353395 91.66805534 322.21470194 84.1640625 327.7109375 C77.32393705 332.73308941 70.58009006 337.87611662 63.8425293 343.03466797 C58.04618888 347.46423485 52.20040551 351.81807808 46.3125 356.125 C40.06801415 360.69577962 33.90771247 365.35694444 27.8125 370.125 C21.90287415 374.74557206 15.97985638 379.34548445 10 383.875 C8.98450073 384.65254639 8.98450073 384.65254639 7.94848633 385.44580078 C3.23254868 389 3.23254868 389 1 389 C1 462.92 1 536.84 1 613 C-3.39787173 609.23039566 -7.51266308 605.61207221 -11.57778072 601.54526711 C-12.09574649 601.02845519 -12.61371225 600.51164327 -13.14737394 599.97917038 C-14.86957807 598.25959755 -16.58821391 596.53650391 -18.30686951 594.81338501 C-19.55838734 593.56230359 -20.81012504 592.31144209 -22.0620628 591.06078088 C-25.49177081 587.63330401 -28.91836113 584.20272514 -32.34444225 580.77162337 C-36.04329116 577.0684503 -39.74503547 573.36817348 -43.44642639 569.6675415 C-49.85567999 563.25881189 -56.26310217 556.84825596 -62.6692791 550.43645096 C-71.93150444 541.16609369 -81.19649449 531.89850361 -90.46215857 522.6315835 C-105.49552841 507.5960258 -120.52666439 492.55823695 -135.55639648 477.51904297 C-150.15515878 462.91109967 -164.75497247 448.30420851 -179.35620117 433.69873047 C-180.25643477 432.79823415 -181.15666837 431.89773782 -182.08418178 430.96995373 C-186.60045965 426.45237081 -191.11675819 421.93480856 -195.63306701 417.41725659 C-233.09191739 379.9480419 -270.54714291 342.4752053 -308 305 C-306.35874246 301.52574488 -304.50147484 299.25350365 -301.76904297 296.52612305 C-300.89408173 295.64808517 -300.01912048 294.7700473 -299.11764526 293.86540222 C-298.15933607 292.91399636 -297.20084549 291.96277316 -296.2421875 291.01171875 C-295.25493461 290.02565957 -294.26805286 289.03922867 -293.28152466 288.05244446 C-291.21159502 285.98407803 -289.13835479 283.9191089 -287.0625 281.85668945 C-284.42163291 279.23271145 -281.78729446 276.60230084 -279.15524101 273.96948528 C-277.11529634 271.92981483 -275.07273752 269.89277889 -273.02933121 267.85657692 C-272.0584707 266.88886706 -271.08818695 265.92057816 -270.11852646 264.95166588 C-268.75061681 263.58596442 -267.37901655 262.22396269 -266.00732422 260.86206055 C-265.23170135 260.09024948 -264.45607849 259.31843842 -263.6569519 258.52323914 C-261.52209645 256.49582162 -259.35737742 254.55918518 -257.13174438 252.63471985 C-253.22001898 249.23437235 -249.53293809 245.66180573 -245.88476562 241.98242188 C-245.22345139 241.31964737 -244.56213715 240.65687286 -243.88078308 239.97401428 C-242.45945143 238.54890652 -241.03927499 237.12264582 -239.62016296 235.69532776 C-237.36820944 233.43049183 -235.11304304 231.1688985 -232.85705566 228.90808105 C-228.06854507 224.10819934 -223.28397981 219.30439696 -218.5 214.5 C-212.951873 208.9281946 -207.40209855 203.358051 -201.84806824 197.79212952 C-199.63707313 195.57469922 -197.42913559 193.35425586 -195.22131348 191.13366699 C-193.85277027 189.76148793 -192.48408459 188.38945093 -191.11523438 187.01757812 C-190.51136398 186.40854141 -189.90749359 185.7995047 -189.2853241 185.17201233 C-185.64339272 181.5296383 -181.8655801 178.11357078 -177.97048187 174.74463654 C-174.81430871 171.95020585 -171.85188485 168.97492584 -168.88476562 165.98242188 C-168.22345139 165.31964737 -167.56213715 164.65687286 -166.88078308 163.97401428 C-165.45945143 162.54890652 -164.03927499 161.12264582 -162.62016296 159.69532776 C-160.36820944 157.43049183 -158.11304304 155.1688985 -155.85705566 152.90808105 C-151.06854507 148.10819934 -146.28397981 143.30439696 -141.5 138.5 C-135.951873 132.9281946 -130.40209855 127.358051 -124.84806824 121.79212952 C-122.63707313 119.57469922 -120.42913559 117.35425586 -118.22131348 115.13366699 C-116.85277027 113.76148793 -115.48408459 112.38945093 -114.11523438 111.01757812 C-113.51136398 110.40854141 -112.90749359 109.7995047 -112.2853241 109.17201233 C-108.64339272 105.5296383 -104.8655801 102.11357078 -100.97048187 98.74463654 C-97.81430871 95.95020585 -94.85188485 92.97492584 -91.88476562 89.98242188 C-91.22345139 89.31964737 -90.56213715 88.65687286 -89.88078308 87.97401428 C-88.45945143 86.54890652 -87.03927499 85.12264582 -85.62016296 83.69532776 C-83.36820944 81.43049183 -81.11304304 79.1688985 -78.85705566 76.90808105 C-74.06854507 72.10819934 -69.28397981 67.30439696 -64.5 62.5 C-58.951873 56.9281946 -53.40209855 51.358051 -47.84806824 45.79212952 C-45.63707313 43.57469922 -43.42913559 41.35425586 -41.22131348 39.13366699 C-39.85277027 37.76148793 -38.48408459 36.38945093 -37.11523438 35.01757812 C-36.51136398 34.40854141 -35.90749359 33.7995047 -35.2853241 33.17201233 C-31.58078043 29.4670184 -27.74907637 25.96531889 -23.77525234 22.55039883 C-21.29191456 20.38160068 -18.97471096 18.06950394 -16.66015625 15.72265625 C-15.74298828 14.79775391 -14.82582031 13.87285156 -13.88085938 12.91992188 C-12.94111411 11.96773615 -12.0016642 11.01525885 -11.0625 10.0625 C-9.18121858 8.15469053 -7.29670807 6.25027523 -5.41015625 4.34765625 C-4.58652588 3.51242432 -3.76289551 2.67719238 -2.91430664 1.81665039 C-1 0 -1 0 0 0 Z " fill="#FFFFFF" transform="translate(308,0)"/>
<path d="M0 0 C2.86221836 1.29991303 4.92434446 2.67451741 7.1432085 4.89431953 C7.74251645 5.48902868 8.34182439 6.08373783 8.95929319 6.69646847 C9.93268212 7.67757275 9.93268212 7.67757275 10.92573547 8.67849731 C11.62250167 9.37284909 12.31926786 10.06720087 13.03714818 10.78259361 C15.37631255 13.11611155 17.70824558 15.45672468 20.0402832 17.79736328 C21.713801 19.46980839 23.3877516 21.1418205 25.06210327 22.81343079 C29.14113954 26.88811649 33.21550273 30.96743115 37.28773657 35.04891439 C42.03408049 39.80564975 46.78565471 44.55714608 51.53743973 49.30844496 C60.02118462 57.79168911 68.50008837 66.27975557 76.97631836 74.77050781 C85.1914543 82.99971131 93.41006369 91.22542476 101.63256836 99.44726562 C102.13833589 99.9529932 102.64410341 100.45872077 103.16519723 100.97977342 C103.92256431 101.73707997 103.92256431 101.73707997 104.69523174 102.50968564 C114.06427443 111.87803695 123.43001642 121.24968195 132.79424149 130.62284861 C136.09996195 133.93157686 139.4066555 137.23933021 142.71364784 140.54678726 C147.17371736 145.00786419 151.63121734 149.47149333 156.08677292 153.93707848 C157.71972064 155.57293804 159.35350468 157.20796328 160.98819923 158.84207726 C163.22556155 161.07894578 165.45980846 163.31888183 167.6933136 165.55960083 C168.65666428 166.52062861 168.65666428 166.52062861 169.6394766 167.5010711 C173.36857968 171.24997928 176.89045809 175.12338909 180.34873277 179.12276542 C182.69009348 181.7845292 185.15469943 184.27744006 187.66319275 186.78344727 C188.18778487 187.30889381 188.712377 187.83434036 189.25286585 188.37570953 C190.98384697 190.10831724 192.7183394 191.83736347 194.45288086 193.56640625 C195.70534399 194.81858687 196.95758609 196.07098859 198.20962524 197.32359314 C201.58909954 200.70335293 204.97163584 204.08003277 208.3547523 207.45614624 C211.89728233 210.99240125 215.43695788 214.5315112 218.97694397 218.0703125 C225.67186455 224.76213196 232.3693289 231.45139942 239.06772286 238.1397419 C246.69729269 245.75811265 254.32400421 253.37934212 261.9504832 261.00080681 C277.63048887 276.67037571 293.31406034 292.33637144 309 308 C308.04082872 309.1242477 307.08091907 310.24786546 306.12069702 311.37121582 C305.58622641 311.99699776 305.05175579 312.62277969 304.5010891 313.26752472 C302.86770162 315.15269159 301.17594355 316.95322978 299.4140625 318.71875 C298.79273438 319.34136719 298.17140625 319.96398437 297.53125 320.60546875 C296.9021875 321.23066406 296.273125 321.85585938 295.625 322.5 C295.00367188 323.12519531 294.38234375 323.75039063 293.7421875 324.39453125 C292.80632812 325.32845703 292.80632812 325.32845703 291.8515625 326.28125 C291.30322754 326.82845703 290.75489258 327.37566406 290.18994141 327.93945312 C288.26862691 329.74724513 286.30596998 331.46880379 284.30783081 333.19018555 C280.34288103 336.65445541 276.59074703 340.27989076 272.88476562 344.01757812 C271.89279427 345.01173988 271.89279427 345.01173988 270.88078308 346.02598572 C269.45945143 347.45109348 268.03927499 348.87735418 266.62016296 350.30467224 C264.36820944 352.56950817 262.11304304 354.8311015 259.85705566 357.09191895 C255.06854507 361.89180066 250.28397981 366.69560304 245.5 371.5 C239.951873 377.0718054 234.40209855 382.641949 228.84806824 388.20787048 C226.63707313 390.42530078 224.42913559 392.64574414 222.22131348 394.86633301 C220.85277027 396.23851207 219.48408459 397.61054907 218.11523438 398.98242188 C217.51136398 399.59145859 216.90749359 400.2004953 216.2853241 400.82798767 C212.64157654 404.4721781 208.86195374 407.89035781 204.9648819 411.26096344 C201.84247468 414.02447829 198.9112618 416.96557969 195.9765625 419.92578125 C195.32500183 420.57880219 194.67344116 421.23182312 194.00213623 421.90463257 C192.60208514 423.3084591 191.20318925 424.71343853 189.80535889 426.11947632 C187.58701179 428.35070887 185.36544938 430.57869592 183.14306641 432.8059082 C178.42588472 437.53445954 173.71264924 442.26693201 169 447 C163.53448019 452.48920057 158.06731148 457.97673766 152.59588623 463.46005249 C150.41812903 465.64424355 148.24343039 467.83144794 146.06884766 470.01879883 C144.72052748 471.37075495 143.37206477 472.72256896 142.0234375 474.07421875 C141.42891785 474.67390472 140.83439819 475.2735907 140.22186279 475.89144897 C137.2389414 478.87473825 134.19706224 481.73406267 131.0057373 484.4942627 C127.13073241 487.84646448 123.49119414 491.38029536 119.88476562 495.01757812 C118.89279427 496.01173988 118.89279427 496.01173988 117.88078308 497.02598572 C116.45945143 498.45109348 115.03927499 499.87735418 113.62016296 501.30467224 C111.36820944 503.56950817 109.11304304 505.8311015 106.85705566 508.09191895 C102.06854507 512.89180066 97.28397981 517.69560304 92.5 522.5 C86.951873 528.0718054 81.40209855 533.641949 75.84806824 539.20787048 C73.63707313 541.42530078 71.42913559 543.64574414 69.22131348 545.86633301 C67.85277027 547.23851207 66.48408459 548.61054907 65.11523438 549.98242188 C64.20942879 550.89597694 64.20942879 550.89597694 63.2853241 551.82798767 C59.60541568 555.50834335 55.78949542 558.96785258 51.85315323 562.37171364 C49.40509356 564.52271881 47.10133899 566.79355148 44.80908203 569.10913086 C44.12452187 569.79829086 44.12452187 569.79829086 43.4261322 570.50137329 C42.45332349 571.48123929 41.48165727 572.46224076 40.5110817 573.44431877 C38.97529143 574.99773812 37.43577918 576.54738224 35.89523315 578.09608459 C31.52215697 582.49342976 27.155031 586.89665146 22.79199219 591.30395508 C20.10913727 594.01351273 17.42149427 596.71824278 14.73080063 599.42001534 C13.70900295 600.44802855 12.68910769 601.47793625 11.67114639 602.50974846 C10.2568109 603.94319276 8.83584616 605.37008718 7.41455078 606.79663086 C6.60817169 607.61046738 5.8017926 608.42430389 4.97097778 609.26280212 C3 611 3 611 1 611 C0.82294027 601.06266477 0.65723234 591.12516663 0.5 581.1875 C0.48218412 580.06205025 0.48218412 580.06205025 0.46400833 578.91386414 C0.07859025 554.35846014 -0.09100238 529.80836263 -0.0625 505.25 C-0.06164398 504.50703548 -0.06078796 503.76407097 -0.05990601 502.99859238 C-0.04874592 493.99903757 -0.02903112 484.99951612 0 476 C-0.86481491 476.00229111 -1.72962982 476.00458221 -2.62065125 476.00694275 C-38.97521284 476.08701154 -75.32825435 475.8388608 -111.68189192 475.61291331 C-118.05267511 475.57331996 -124.42346178 475.53433112 -130.79425049 475.49563599 C-198.19691686 475.08564739 -265.59859132 474.58021095 -333 474 C-324.63173129 465.57375052 -315.23950426 458.63830613 -305.67529297 451.64672852 C-299.55988958 447.17046251 -293.51644826 442.60823689 -287.5 438 C-280.11379809 432.34618832 -272.66804952 426.78529379 -265.1640625 421.2890625 C-259.22328567 416.92722968 -253.3524674 412.47945452 -247.5 408 C-240.11358208 402.34646605 -232.66805534 396.78529806 -225.1640625 391.2890625 C-218.32475923 386.26751425 -211.58210329 381.12463313 -204.84472656 375.9675293 C-199.02422737 371.52038819 -193.1582237 367.14229229 -187.25 362.8125 C-179.17677229 356.89346276 -171.20976743 350.84745659 -163.2734375 344.74658203 C-151.65047221 335.81716905 -139.98896803 326.95057485 -128.16455078 318.28930664 C-122.22349078 313.92755479 -116.35260927 309.4795631 -110.5 305 C-103.11358208 299.34646605 -95.66805534 293.78529806 -88.1640625 288.2890625 C-82.22328567 283.92722968 -76.3524674 279.47945452 -70.5 275 C-63.11358208 269.34646605 -55.66805534 263.78529806 -48.1640625 258.2890625 C-41.43343621 253.34730699 -34.78742631 248.29912603 -28.16992188 243.20703125 C-27.38166016 242.60246094 -26.59339844 241.99789062 -25.78125 241.375 C-24.97856847 240.73691721 -24.17588694 240.09883442 -23.34888172 239.44141579 C-20.79673451 237.49465591 -18.13652059 235.89087387 -15.35823345 234.28580284 C-5.00704508 228.19651074 -5.00704508 228.19651074 0.7459774 218.16307449 C1.60835435 212.42943793 1.42102397 206.71789457 1.2487793 200.93994141 C1.25328991 198.7408282 1.26617698 196.5417188 1.28674316 194.34269714 C1.31875583 188.40926488 1.23451565 182.48265093 1.12841392 176.55029726 C1.03738562 170.33775916 1.05458545 164.12551271 1.06001282 157.91244507 C1.05397946 146.16416324 0.95145831 134.4188106 0.81374437 122.67141473 C0.70593407 113.28322264 0.64467203 103.89559634 0.61645508 94.50683594 C0.61445033 93.84441405 0.61244558 93.18199217 0.61038008 92.49949689 C0.60056799 89.17583948 0.59158465 85.85218043 0.58290613 82.52851987 C0.50865809 55.01769211 0.29921698 27.5092362 0 0 Z " fill="#FFFFFF" transform="translate(781,1)"/>
<path d="M0 0 C1.15148529 -0.00660141 1.15148529 -0.00660141 2.32623291 -0.01333618 C17.12821797 -0.04880451 31.2755163 2.06996667 45.5 6.25 C46.81786499 6.63406006 46.81786499 6.63406006 48.16235352 7.02587891 C66.55240966 12.56543463 82.91279363 21.54529452 97.9375 33.5 C98.92105469 34.27859375 99.90460937 35.0571875 100.91796875 35.859375 C105.92173637 39.88399781 110.36587698 43.92837698 114.9375 48.5 C115.2675 35.63 115.5975 22.76 115.9375 9.5 C146.6275 9.5 177.3175 9.5 208.9375 9.5 C208.9375 130.94 208.9375 252.38 208.9375 377.5 C178.2475 377.5 147.5575 377.5 115.9375 377.5 C115.6075 365.29 115.2775 353.08 114.9375 340.5 C112.6275 342.81 110.3175 345.12 107.9375 347.5 C71.83183257 377.58182032 30.88931837 390.91904531 -16.12670898 387.03295898 C-44.18551656 384.20294634 -73.0809984 373.29104812 -95.0625 355.5 C-95.89523438 354.85546875 -96.72796875 354.2109375 -97.5859375 353.546875 C-110.47404783 343.47432108 -121.98940391 332.38571383 -132.0625 319.5 C-132.48402344 318.97083984 -132.90554687 318.44167969 -133.33984375 317.89648438 C-146.73446905 300.98427943 -156.29594094 281.93411214 -163.0625 261.5 C-163.31080566 260.75363281 -163.55911133 260.00726563 -163.81494141 259.23828125 C-180.9259922 206.39916668 -175.67344603 143.78353944 -150.94042969 94.25292969 C-137.93538299 69.10523993 -118.84097589 47.21769767 -96.0625 30.5 C-95.4854834 30.07332031 -94.9084668 29.64664063 -94.31396484 29.20703125 C-79.68368226 18.53099007 -62.63158613 10.01787628 -45.0625 5.5 C-44.21316895 5.27441406 -43.36383789 5.04882812 -42.48876953 4.81640625 C-28.30268241 1.19213403 -14.57325958 0.02008047 0 0 Z M-44.0625 108.5 C-44.5687793 108.96535156 -45.07505859 109.43070313 -45.59667969 109.91015625 C-67.74105613 130.46434305 -79.12225505 156.96955242 -80.3515625 187.12890625 C-81.02881294 216.39156293 -74.8201176 245.06530063 -55.0625 267.5 C-54.38703125 268.31855469 -53.7115625 269.13710938 -53.015625 269.98046875 C-37.12326441 288.68589316 -13.99830609 299.78488917 10.3034668 302.16967773 C38.06794858 304.15146525 63.34695649 297.20241379 84.71875 279.34375 C102.46876769 263.94361645 113.02775487 243.24766339 117.9375 220.5 C118.16308594 219.47648438 118.38867188 218.45296875 118.62109375 217.3984375 C124.02576486 187.35592087 119.46553055 155.23952608 102.9609375 129.40625 C87.60881315 107.63192224 66.6251323 92.63166635 40.4375 87.1875 C38.60924632 86.9208224 36.77474475 86.69534635 34.9375 86.5 C33.70128906 86.36722656 32.46507813 86.23445313 31.19140625 86.09765625 C4.38421468 83.67395745 -23.88206804 89.77458351 -44.0625 108.5 Z " fill="#FFFFFF" transform="translate(3220.0625,223.5)"/>
<path d="M0 0 C1.07660889 0.00182281 2.15321777 0.00364563 3.26245117 0.00552368 C19.32360593 0.05125692 35.02146518 0.51946576 50.875 3.3125 C52.40108887 3.56990967 52.40108887 3.56990967 53.95800781 3.83251953 C69.58907996 6.52264099 84.78603835 10.4422334 99.875 15.3125 C100.69629395 15.57756348 101.51758789 15.84262695 102.36376953 16.11572266 C131.34848424 25.68529831 156.6049483 40.80013072 179.875 60.3125 C176.03887303 64.43132792 171.96415815 67.46877029 167.26171875 70.5390625 C166.51102112 71.03652985 165.76032349 71.53399719 164.98687744 72.04653931 C162.51582749 73.68260634 160.03950395 75.31046379 157.5625 76.9375 C154.04489325 79.25481901 150.52958541 81.57559329 147.015625 83.8984375 C146.10912704 84.49712646 145.20262909 85.09581543 144.2686615 85.71264648 C137.65729474 90.09352523 131.12232905 94.57600977 124.609375 99.1015625 C121.89079163 100.97940907 119.17127206 102.85589284 116.4515686 104.7321167 C114.69573395 105.94991392 112.94485014 107.17488125 111.19906616 108.40704346 C108.75835101 110.12855751 106.30147708 111.82421659 103.83984375 113.515625 C103.11960022 114.03403961 102.39935669 114.55245422 101.6572876 115.08657837 C96.67610003 118.45994244 96.67610003 118.45994244 92.51367188 117.69384766 C90.02500536 116.39102797 87.74160975 115.04278964 85.4375 113.4375 C60.22378424 97.04000866 31.61679426 85.14223428 1.25 85.125 C0.13753906 85.11275391 -0.97492187 85.10050781 -2.12109375 85.08789062 C-17.04150921 85.06183635 -30.51298124 87.57845196 -42.6015625 96.78515625 C-45.46349403 99.65442606 -46.45221568 102.55966334 -46.625 106.5625 C-46.44778689 111.07405039 -45.37166131 113.92486063 -42.42578125 117.3515625 C-34.17990857 124.37945398 -23.10293837 127.81018821 -13.05078125 131.39453125 C-11.97654907 131.77937683 -10.90231689 132.16422241 -9.79553223 132.56072998 C2.27392852 136.85505674 14.42705236 140.89856175 26.57745934 144.95611763 C75.59332129 161.33212489 75.59332129 161.33212489 98.875 171.3125 C99.9568457 171.77092285 101.03869141 172.2293457 102.15332031 172.70166016 C135.87926553 187.11702864 169.27052905 206.52624236 184.4375 241.6015625 C187.62947501 249.84171539 189.34772015 258.49703997 189.875 267.3125 C189.936875 268.33150391 189.936875 268.33150391 190 269.37109375 C190.68412211 292.67400309 181.31285601 314.28379799 165.875 331.3125 C126.48829821 372.81920368 63.92380751 385.8646736 9.01855469 387.421875 C-60.94582363 388.92624385 -135.21218914 377.20199694 -190.125 330.3125 C-190.83527344 329.71179688 -191.54554688 329.11109375 -192.27734375 328.4921875 C-193.90181281 327.10897622 -195.51498706 325.71251125 -197.125 324.3125 C-192.98739169 319.88641302 -188.40179131 316.41851173 -183.5 312.875 C-181.78897871 311.6264169 -180.0780436 310.37771569 -178.3671875 309.12890625 C-177.49545898 308.49484863 -176.62373047 307.86079102 -175.72558594 307.20751953 C-171.67966531 304.25929986 -167.65283803 301.28534817 -163.625 298.3125 C-162.04176909 297.14569435 -160.45843546 295.97902805 -158.875 294.8125 C-157.699375 293.94625 -157.699375 293.94625 -156.5 293.0625 C-154.125 291.3125 -151.75 289.5625 -149.375 287.8125 C-148.5900415 287.2340332 -147.80508301 286.65556641 -146.99633789 286.05957031 C-145.42550653 284.90226884 -143.85438392 283.74536256 -142.28295898 282.58886719 C-138.13077304 279.53222319 -133.98504246 276.46727923 -129.84765625 273.390625 C-128.98398438 272.74996094 -128.1203125 272.10929687 -127.23046875 271.44921875 C-125.57364969 270.2199659 -123.91860866 268.98831179 -122.265625 267.75390625 C-121.51925781 267.20089844 -120.77289062 266.64789063 -120.00390625 266.078125 C-119.02272827 265.34770996 -119.02272827 265.34770996 -118.02172852 264.60253906 C-116.12117172 263.30989624 -114.20253208 262.29023006 -112.125 261.3125 C-110.81402344 262.32957031 -110.81402344 262.32957031 -109.4765625 263.3671875 C-73.38838383 290.88429916 -25.80258536 307.38162863 19.74609375 302.0703125 C31.18021435 300.50742013 44.59280317 296.7703798 52.875 288.3125 C53.535 288.3125 54.195 288.3125 54.875 288.3125 C55.16375 287.735 55.4525 287.1575 55.75 286.5625 C56.44079589 285.18090822 57.1569075 283.81121335 57.9140625 282.46484375 C59.69705392 278.47123288 59.56629531 274.5796774 58.875 270.3125 C52.67311003 255.49144799 34.54167346 247.88569563 20.6484375 242.08203125 C5.15206421 235.85515993 -10.7289104 230.66882875 -26.54428101 225.32531738 C-51.62380006 216.84693989 -76.29484389 207.94272001 -100.125 196.3125 C-100.91293945 195.92884277 -101.70087891 195.54518555 -102.51269531 195.14990234 C-118.25526894 187.38817672 -132.83458084 177.77693114 -146.125 166.3125 C-146.75277344 165.8175 -147.38054688 165.3225 -148.02734375 164.8125 C-162.56213407 153.21103471 -174.4831994 133.80510418 -177.125 115.3125 C-178.87381303 94.07691315 -173.76607914 73.9859258 -159.875 57.5 C-158.01053815 55.38427342 -156.09033512 53.33462907 -154.125 51.3125 C-153.65578125 50.82942383 -153.1865625 50.34634766 -152.703125 49.84863281 C-145.50531559 42.58655724 -137.52228384 36.81038298 -128.86669922 31.40429688 C-127.34713888 30.45174938 -125.84569361 29.47042491 -124.34765625 28.484375 C-104.36391263 15.92484156 -80.62853587 8.93895632 -57.625 4.5625 C-56.06108521 4.26412231 -56.06108521 4.26412231 -54.46557617 3.9597168 C-36.36372878 0.72461703 -18.35538728 -0.06470405 0 0 Z " fill="#FFFFFF" transform="translate(2481.125,223.6875)"/>
<path d="M0 0 C0.90802368 -0.01252808 1.81604736 -0.02505615 2.75158691 -0.03796387 C50.04573848 -0.56302974 95.25039951 7.89303445 133.52734375 37.2734375 C134.41164062 37.9334375 135.2959375 38.5934375 136.20703125 39.2734375 C178.3796318 72.08859173 200.40344202 119.57328433 207.27734375 171.6875 C209.03737775 187.99225945 208.52734375 203.69826872 208.52734375 220.2734375 C110.84734375 220.6034375 13.16734375 220.9334375 -87.47265625 221.2734375 C-80.94438485 249.01859096 -69.92174077 272.76684256 -45.03515625 288.5234375 C-16.81788764 305.15677478 17.7248799 308.6391928 49.37841797 300.70043945 C68.54136196 295.52187707 90.0514361 285.88701422 103.12109375 270.3828125 C103.8171875 269.83367187 103.8171875 269.83367187 104.52734375 269.2734375 C108.38375481 269.74549737 111.47147874 271.04996164 114.9375 272.7578125 C115.99582031 273.2744043 117.05414063 273.79099609 118.14453125 274.32324219 C119.28148438 274.88430664 120.4184375 275.44537109 121.58984375 276.0234375 C124.02694622 277.21443859 126.46644335 278.40048753 128.90625 279.5859375 C129.53282501 279.89086121 130.15940002 280.19578491 130.80496216 280.50994873 C137.50753128 283.76428005 144.26318436 286.89933862 151.02734375 290.0234375 C161.89061599 295.0449751 172.72390147 300.12450627 183.52734375 305.2734375 C182.06123334 309.84126126 179.45661848 313.03994701 176.33984375 316.5859375 C175.84154053 317.16206787 175.3432373 317.73819824 174.82983398 318.33178711 C173.8404587 319.47421315 172.84842711 320.61434517 171.85351562 321.75195312 C170.780077 322.98348286 169.72164819 324.22808518 168.66796875 325.4765625 C142.87467065 355.866686 108.96034487 373.24819929 70.52734375 382.2734375 C69.80434082 382.44504395 69.08133789 382.61665039 68.33642578 382.79345703 C16.89537492 394.66446877 -44.82585971 387.67270334 -90.16015625 359.9609375 C-91.94902657 358.7581722 -93.71805879 357.52567116 -95.47265625 356.2734375 C-96.37081055 355.63365967 -96.37081055 355.63365967 -97.28710938 354.98095703 C-106.59222405 348.30465185 -115.23035283 341.22568918 -123.47265625 333.2734375 C-124.24867188 332.54898437 -125.0246875 331.82453125 -125.82421875 331.078125 C-132.4547923 324.72870651 -138.02028556 317.63295947 -143.47265625 310.2734375 C-143.89160156 309.71479004 -144.31054688 309.15614258 -144.7421875 308.58056641 C-175.23234406 267.38255724 -183.72625163 212.14190575 -176.47265625 162.2734375 C-171.71903635 132.05750441 -161.86208991 103.01610318 -143.47265625 78.2734375 C-143.05580566 77.70399414 -142.63895508 77.13455078 -142.20947266 76.54785156 C-131.96657267 62.65877619 -120.28121857 49.67548224 -106.47265625 39.2734375 C-105.54324219 38.53996094 -104.61382813 37.80648437 -103.65625 37.05078125 C-74.4561968 14.38283049 -37.10874746 0.46791195 0 0 Z M-20.47265625 84.2734375 C-21.68050781 84.69496094 -22.88835938 85.11648438 -24.1328125 85.55078125 C-48.5219923 94.45868401 -64.78860748 110.46044983 -77.53515625 132.7734375 C-77.90527832 133.41941895 -78.27540039 134.06540039 -78.65673828 134.73095703 C-78.99946777 135.35341309 -79.34219727 135.97586914 -79.6953125 136.6171875 C-80.14015991 137.42446289 -80.14015991 137.42446289 -80.59399414 138.24804688 C-81.85074781 141.14497059 -82.6051464 144.23715301 -83.47265625 147.2734375 C-18.13265625 147.2734375 47.20734375 147.2734375 114.52734375 147.2734375 C105.7458656 120.92900304 89.30726407 101.48828839 64.46484375 88.8984375 C38.67933163 76.28888566 6.58361481 74.61731249 -20.47265625 84.2734375 Z " fill="#FFFFFF" transform="translate(4083.47265625,223.7265625)"/>
<path d="M0 0 C30.69 0 61.38 0 93 0 C93.33 96.03 93.66 192.06 94 291 C102.72617962 281.59325231 102.72617962 281.59325231 111.2265625 272.0234375 C113.45138092 269.48498829 115.72503319 266.99358224 118 264.5 C120.84524228 261.38092989 123.6719958 258.25244609 126.4375 255.0625 C129.3988351 251.6531142 132.44152486 248.3220569 135.5 245 C139.14414329 241.04137814 142.73913717 237.0482324 146.265625 232.984375 C149.79500714 228.94625309 153.40634226 224.98085319 157 221 C158.50028679 219.33359149 160.00028872 217.66692647 161.5 216 C163.7717129 213.47499507 166.04435414 210.95086696 168.3203125 208.4296875 C171.69912708 204.68435744 175.06895965 200.93481793 178.375 197.125 C181.82716078 193.15902924 185.38750881 189.29482354 188.94824219 185.42675781 C192.10697965 181.9897558 195.20638336 178.50978679 198.265625 174.984375 C201.79500714 170.94625309 205.40634226 166.98085319 209 163 C210.50028679 161.33359149 212.00028872 159.66692647 213.5 158 C214.59828125 156.77990234 214.59828125 156.77990234 215.71875 155.53515625 C217.32348436 153.75181276 218.92759475 151.96790769 220.53125 150.18359375 C221.3459375 149.27738281 222.160625 148.37117187 223 147.4375 C224.11375 146.19806641 224.11375 146.19806641 225.25 144.93359375 C227.89925112 142.0064078 227.89925112 142.0064078 229.93466282 141.87695217 C230.78916492 141.87787396 231.64366701 141.87879576 232.52406311 141.87974548 C233.50147964 141.87837082 234.47889618 141.87699615 235.4859314 141.87557983 C236.56702179 141.87917511 237.64811218 141.88277039 238.76196289 141.88647461 C240.45930321 141.88625557 240.45930321 141.88625557 242.19093323 141.8860321 C245.95152671 141.88673181 249.71207137 141.89452689 253.47265625 141.90234375 C256.07197543 141.90420773 258.67129497 141.90563172 261.27061462 141.90663147 C267.42588577 141.91006659 273.5811366 141.91795744 279.73640007 141.92798096 C286.74233346 141.93914306 293.74826767 141.94465279 300.75420773 141.94967639 C315.16948133 141.96014008 329.58474004 141.97773892 344 142 C341.75691997 145.40236743 339.60893671 148.63454878 336.79296875 151.5859375 C336.20999023 152.20243164 335.62701172 152.81892578 335.02636719 153.45410156 C334.41954102 154.08799805 333.81271484 154.72189453 333.1875 155.375 C331.92488839 156.71009367 330.66315829 158.0460216 329.40234375 159.3828125 C328.50878174 160.32882324 328.50878174 160.32882324 327.59716797 161.29394531 C325.23125857 163.82115028 322.96128077 166.42376476 320.703125 169.046875 C318.50634095 171.56612276 316.25310381 174.03102996 314 176.5 C311.15475772 179.61907011 308.3280042 182.74755391 305.5625 185.9375 C302.13299081 189.88589474 298.59123177 193.72857458 295.04931641 197.57568359 C291.91468711 200.98616889 288.84266155 204.44167816 285.80859375 207.94140625 C282.7222052 211.45442302 279.55371222 214.89299818 276.40234375 218.34765625 C274.43058156 220.52460996 272.48634663 222.71838674 270.5625 224.9375 C267.13299081 228.88589474 263.59123177 232.72857458 260.04931641 236.57568359 C256.91468711 239.98616889 253.84266155 243.44167816 250.80859375 246.94140625 C247.7222052 250.45442302 244.55371222 253.89299818 241.40234375 257.34765625 C239.43058156 259.52460996 237.48634663 261.71838674 235.5625 263.9375 C232.13299081 267.88589474 228.59123177 271.72857458 225.04931641 275.57568359 C221.91468711 278.98616889 218.84266155 282.44167816 215.80859375 285.94140625 C213.5698875 288.4895665 211.28589788 290.99410593 209 293.5 C205.57669079 297.25326672 202.20248419 301.04030597 198.87109375 304.875 C194.9727408 309.302357 190.97875949 313.64497955 187 318 C191.09148761 324.02501762 195.89167237 329.03940386 201.12109375 334.09375 C203.9631294 336.89306321 206.54995302 339.88751798 209.15893555 342.90283203 C212.24381769 346.41684046 215.46933687 349.79593597 218.6875 353.1875 C223.52742457 358.30851722 228.35471945 363.43899457 233.125 368.625 C237.39689342 373.26867813 241.69106797 377.89066312 246 382.5 C252.85195247 389.83173907 259.66033226 397.20285068 266.45898438 404.58398438 C272.87726301 411.55068736 279.32030385 418.49324892 285.78857422 425.41357422 C290.0306839 429.95460492 294.25065172 434.51541337 298.4609375 439.0859375 C302.29051482 443.23971185 306.14212624 447.37250689 310 451.5 C316.85188726 458.83180057 323.66033174 466.20285013 330.45898438 473.58398438 C331.93060185 475.18134753 333.40265875 476.77830396 334.875 478.375 C335.60565674 479.16753174 335.60565674 479.16753174 336.35107422 479.97607422 C339.69337298 483.59680724 343.05411589 487.19982165 346.421875 490.796875 C363 508.50854701 363 508.50854701 363 510 C348.03134814 510.23404812 333.06283851 510.41015946 318.09274387 510.51812172 C311.14103945 510.56959367 304.19047462 510.63970753 297.23950195 510.75439453 C290.52851184 510.86506877 283.81894853 510.92287741 277.10700798 510.94877243 C274.54924853 510.96721999 271.9915523 511.00324587 269.43429756 511.05730057 C248.30532099 511.48607183 248.30532099 511.48607183 243.50384521 507.84207153 C241.21454326 505.32520059 239.6350691 502.96725144 238 500 C236.85148768 498.68857606 235.67196772 497.40270299 234.4453125 496.1640625 C233.8992334 495.58124512 233.3531543 494.99842773 232.79052734 494.39794922 C232.24090332 493.81287598 231.6912793 493.22780273 231.125 492.625 C225.95137124 487.09967055 220.81470482 481.54331553 215.70703125 475.95703125 C212.83509331 472.8166683 209.94991552 469.68862967 207.0625 466.5625 C206.56419678 466.02294678 206.06589355 465.48339355 205.55249023 464.92749023 C204.03516094 463.28483869 202.51762018 461.64238279 201 460 C194.70153025 453.18373698 188.40974739 446.36170543 182.14208984 439.51708984 C177.28158878 434.21140514 172.39919088 428.92601276 167.51611328 423.64111328 C165.00985896 420.92822414 162.50499554 418.21405141 160 415.5 C159.00000676 414.41666043 158.00000676 413.33332709 157 412.25 C147 401.41666667 137 390.58333333 127 379.75 C126.50491943 379.21366943 126.00983887 378.67733887 125.49975586 378.12475586 C124.50054262 377.04226129 123.50135638 375.95974179 122.50219727 374.87719727 C119.99038165 372.15582492 117.47808667 369.43489805 114.96484375 366.71484375 C109.42633925 360.71947275 103.89729169 354.71574946 98.38842773 348.69311523 C96.22862567 346.31392313 96.22862567 346.31392313 94 344 C93.67 398.78 93.34 453.56 93 510 C62.31 510 31.62 510 0 510 C0 341.7 0 173.4 0 0 Z " fill="#FFFFFF" transform="translate(3522,91)"/>
<path d="M0 0 C45.54 0 91.08 0 138 0 C138 44.55 138 89.1 138 135 C165.06 135 192.12 135 220 135 C220 161.4 220 187.8 220 215 C192.94 215 165.88 215 138 215 C138 310.04 138 405.08 138 503 C92.46 503 46.92 503 0 503 C0 407.96 0 312.92 0 215 C-23.1 215 -46.2 215 -70 215 C-70 188.6 -70 162.2 -70 135 C-46.9 135 -23.8 135 0 135 C0 90.45 0 45.9 0 0 Z " fill="#FFFFFF" transform="translate(2794,98)"/>
</svg>
